<?xml version="1.0" encoding="utf-8"?>
<!-- Generator: Adobe Illustrator 17.0.0, SVG Export Plug-In . SVG Version: 6.00 Build 0)  -->
<!DOCTYPE svg PUBLIC "-//W3C//DTD SVG 1.1//EN" "http://www.w3.org/Graphics/SVG/1.1/DTD/svg11.dtd">
<svg version="1.1" id="Layer_1" xmlns="http://www.w3.org/2000/svg" xmlns:xlink="http://www.w3.org/1999/xlink" x="0px" y="0px"
	 width="1300px" height="800px" viewBox="352.5 20.5 1300 800" enable-background="new 352.5 20.5 1300 800" xml:space="preserve">
<g id="Layer_2">
	
		<linearGradient id="SVGID_1_" gradientUnits="userSpaceOnUse" x1="653.93" y1="-51.2709" x2="653.93" y2="748.7291" gradientTransform="matrix(1 0 0 -1 348.57 769.2291)">
		<stop  offset="0.1872" style="stop-color:#FFFFFF"/>
		<stop  offset="0.2838" style="stop-color:#FAFEFF"/>
		<stop  offset="0.3935" style="stop-color:#EDFBFF"/>
		<stop  offset="0.5095" style="stop-color:#D6F5FF"/>
		<stop  offset="0.6293" style="stop-color:#B6EEFF"/>
		<stop  offset="0.6502" style="stop-color:#B0ECFF"/>
	</linearGradient>
	<rect x="352.5" y="20.5" fill="url(#SVGID_1_)" width="1300" height="800"/>
</g>
<rect x="352.5" y="20.5" fill="none" stroke="#B7B6B6" stroke-width="0.25" width="800" height="800"/>
<rect x="1152.5" y="20.5" fill="none" stroke="#B7B6B6" stroke-width="0.25" width="500" height="500"/>
<rect x="1152.5" y="520.5" fill="none" stroke="#B7B6B6" stroke-width="0.25" width="500" height="300"/>
<rect x="1352.5" y="520.5" fill="none" stroke="#B7B6B6" stroke-width="0.25" width="300" height="300"/>
<rect x="1152.5" y="520.5" fill="none" stroke="#B7B6B6" stroke-width="0.25" width="123.077" height="123.077"/>
<rect x="1275.577" y="520.5" fill="none" stroke="#B7B6B6" stroke-width="0.25" width="76.923" height="76.923"/>
<rect x="1275.577" y="597.423" fill="none" stroke="#B7B6B6" stroke-width="0.25" width="76.923" height="46.154"/>
<rect x="1306.346" y="597.423" fill="none" stroke="#B7B6B6" stroke-width="0.25" width="46.154" height="46.154"/>
<rect x="1275.577" y="597.423" fill="none" stroke="#B7B6B6" stroke-width="0.25" width="18.935" height="18.935"/>
<rect x="1294.512" y="597.423" fill="none" stroke="#B7B6B6" stroke-width="0.25" width="11.834" height="11.834"/>
<rect x="1294.512" y="609.257" fill="none" stroke="#B7B6B6" stroke-width="0.25" width="11.834" height="7.101"/>
<rect x="1299.245" y="609.257" fill="none" stroke="#B7B6B6" stroke-width="0.25" width="7.101" height="7.101"/>
<path fill="none" stroke="#B7B6B6" stroke-width="0.25" d="M352.5,820.5c0-442.188,357.812-800,800-800"/>
<path fill="none" stroke="#B7B6B6" stroke-width="0.25" d="M1652.5,520.5c0-276.367-223.633-500-500-500"/>
<path fill="none" stroke="#B7B6B6" stroke-width="0.25" d="M1652.5,520.5c0,165.82-134.18,300-300,300"/>
<path fill="none" stroke="#B7B6B6" stroke-width="0.25" d="M1152.5,643.577c0,97.792,88.463,176.923,197.785,176.923"/>
<path fill="none" stroke="#B7B6B6" stroke-width="0.25" d="M1152.5,643.577c0-68.029,55.048-123.077,123.077-123.077"/>
<path fill="none" stroke="#B7B6B6" stroke-width="0.25" d="M1352.5,597.423c0-42.518-34.405-76.923-76.923-76.923"/>
<path fill="none" stroke="#B7B6B6" stroke-width="0.25" d="M1352.5,597.423c0,25.511-20.643,46.154-46.154,46.154"/>
<path fill="none" stroke="#B7B6B6" stroke-width="0.25" d="M1275.577,616.358c0,15.045,13.762,27.219,30.769,27.219"/>
<path fill="none" stroke="#B7B6B6" stroke-width="0.25" d="M1275.577,616.358c0-10.466,8.469-18.935,18.935-18.935"/>
<path fill="none" stroke="#B7B6B6" stroke-width="0.25" d="M1306.346,609.257c0-6.541-5.293-11.834-11.834-11.834"/>
<path fill="none" stroke="#B7B6B6" stroke-width="0.25" d="M1306.346,609.257c0,3.925-2.967,7.101-6.634,7.101"/>
<path fill="none" stroke="#B7B6B6" stroke-width="0.25" d="M1294.549,612.203c0,2.296,2.101,4.155,4.697,4.155"/>
</svg>
